<svg width="24" height="24" viewBox="0 0 24 24" fill="none" xmlns="http://www.w3.org/2000/svg">
<path d="M21.0006 10.7148C21.7106 10.7148 22.2863 11.2905 22.2863 12.0006C22.2863 12.6599 21.7899 13.2034 21.1505 13.2776L21.0006 13.2863H3.00056C2.29048 13.2863 1.71484 12.7106 1.71484 12.0006C1.71484 11.3412 2.21118 10.7978 2.85062 10.7235L3.00056 10.7148H21.0006Z" fill="#1A181E"/>
<path d="M11.0914 2.09142C11.5935 1.58932 12.4076 1.58932 12.9097 2.09142C13.3732 2.5549 13.4088 3.2842 13.0167 3.78857L12.9097 3.9097L4.81984 12.0006L12.9097 20.0914C13.3732 20.5549 13.4088 21.2842 13.0167 21.7886L12.9097 21.9097C12.4462 22.3732 11.7169 22.4088 11.2125 22.0167L11.0914 21.9097L2.09142 12.9097C1.62794 12.4462 1.59229 11.7169 1.98446 11.2125L2.09142 11.0914L11.0914 2.09142Z" fill="#1A181E"/>
</svg>
