<svg width="20" height="20" viewBox="0 0 20 20" fill="none" xmlns="http://www.w3.org/2000/svg">
<g opacity="0.8">
<path d="M17.0809 10.8333C17.7713 10.8333 18.3309 11.393 18.3309 12.0833V17.0833C18.3309 17.7737 17.7713 18.3333 17.0809 18.3333H12.0809C11.3906 18.3333 10.8309 17.7737 10.8309 17.0833V12.0833C10.8309 11.393 11.3906 10.8333 12.0809 10.8333H17.0809ZM7.91669 10.8333C8.60704 10.8333 9.16669 11.393 9.16669 12.0833V17.0833C9.16669 17.7737 8.60704 18.3333 7.91669 18.3333H2.91669C2.22633 18.3333 1.66669 17.7737 1.66669 17.0833V12.0833C1.66669 11.393 2.22633 10.8333 2.91669 10.8333H7.91669ZM16.9142 12.25H12.2475V16.9167H16.9142V12.25ZM7.75002 12.25H3.08335V16.9167H7.75002V12.25ZM7.91669 1.66666C8.60704 1.66666 9.16669 2.2263 9.16669 2.91666V7.91666C9.16669 8.60701 8.60704 9.16666 7.91669 9.16666H2.91669C2.22633 9.16666 1.66669 8.60701 1.66669 7.91666V2.91666C1.66669 2.2263 2.22633 1.66666 2.91669 1.66666H7.91669ZM17.0809 1.66666C17.7713 1.66666 18.3309 2.2263 18.3309 2.91666V7.91666C18.3309 8.60701 17.7713 9.16666 17.0809 9.16666H12.0809C11.3906 9.16666 10.8309 8.60701 10.8309 7.91666V2.91666C10.8309 2.2263 11.3906 1.66666 12.0809 1.66666H17.0809ZM7.75002 3.08332H3.08335V7.74999H7.75002V3.08332ZM16.9142 3.08332H12.2475V7.74999H16.9142V3.08332Z" fill="white"/>
</g>
</svg>
