<svg width="16" height="16" viewBox="0 0 16 16" fill="none" xmlns="http://www.w3.org/2000/svg">
<g clip-path="url(#clip0_1_1568)">
<path fill-rule="evenodd" clip-rule="evenodd" d="M8.88868 11.635C8.88868 12.1258 8.4908 12.5237 7.99998 12.5237C7.50917 12.5237 7.11129 12.1258 7.11129 11.635C7.11129 11.1442 7.50917 10.7463 7.99998 10.7463C8.4908 10.7463 8.88868 11.1442 8.88868 11.635Z" fill="white"/>
<path fill-rule="evenodd" clip-rule="evenodd" d="M7.0023 3.89432C7.47866 3.697 8.00283 3.64537 8.50853 3.74596C9.01423 3.84655 9.47875 4.09484 9.84334 4.45943C10.2079 4.82403 10.4562 5.28854 10.5568 5.79424C10.6574 6.29994 10.6058 6.82412 10.4085 7.30048C10.2111 7.77684 9.877 8.18399 9.44829 8.47045C9.16932 8.65685 8.85846 8.78669 8.53327 8.85466V8.96893C8.53327 9.26348 8.29449 9.50226 7.99994 9.50226C7.70539 9.50226 7.4666 9.26348 7.4666 8.96893V8.37646C7.4666 8.23502 7.52279 8.09936 7.62281 7.99934C7.72283 7.89932 7.85849 7.84313 7.99994 7.84313C8.30458 7.84313 8.60238 7.75279 8.85568 7.58354C9.10898 7.41429 9.3064 7.17373 9.42299 6.89228C9.53957 6.61083 9.57007 6.30113 9.51064 6.00234C9.4512 5.70355 9.30451 5.4291 9.08909 5.21368C8.87368 4.99827 8.59922 4.85157 8.30043 4.79214C8.00165 4.7327 7.69194 4.76321 7.41049 4.87979C7.12904 4.99637 6.88848 5.19379 6.71923 5.44709C6.54998 5.70039 6.45964 5.99819 6.45964 6.30284C6.45964 6.59739 6.22086 6.83617 5.92631 6.83617C5.63176 6.83617 5.39297 6.59739 5.39297 6.30284C5.39297 5.78723 5.54587 5.2832 5.83233 4.85448C6.11878 4.42577 6.52594 4.09163 7.0023 3.89432Z" fill="white"/>
<path fill-rule="evenodd" clip-rule="evenodd" d="M7.99996 1.86668C4.61261 1.86668 1.86662 4.61267 1.86662 8.00002C1.86662 11.3874 4.61261 14.1334 7.99996 14.1334C11.3873 14.1334 14.1333 11.3874 14.1333 8.00002C14.1333 4.61267 11.3873 1.86668 7.99996 1.86668ZM0.799957 8.00002C0.799957 4.02357 4.02351 0.800018 7.99996 0.800018C11.9764 0.800018 15.2 4.02357 15.2 8.00002C15.2 11.9765 11.9764 15.2 7.99996 15.2C4.02351 15.2 0.799957 11.9765 0.799957 8.00002Z" fill="white"/>
</g>
<defs>
<clipPath id="clip0_1_1568">
<rect width="16" height="16" fill="white"/>
</clipPath>
</defs>
</svg>
